<svg id="visual" viewBox="0 0 900 600" width="900" height="600" xmlns="http://www.w3.org/2000/svg" xmlns:xlink="http://www.w3.org/1999/xlink" version="1.1"><rect x="0" y="0" width="900" height="600" fill="#fff"></rect><g fill="#000"><circle r="18" cx="385" cy="320"></circle><circle r="9" cx="60" cy="483"></circle><circle r="14" cx="811" cy="498"></circle><circle r="12" cx="684" cy="169"></circle><circle r="14" cx="444" cy="29"></circle><circle r="10" cx="521" cy="549"></circle><circle r="14" cx="525" cy="132"></circle><circle r="16" cx="628" cy="517"></circle><circle r="16" cx="797" cy="340"></circle><circle r="14" cx="133" cy="534"></circle><circle r="11" cx="85" cy="399"></circle><circle r="16" cx="785" cy="598"></circle><circle r="14" cx="657" cy="399"></circle><circle r="15" cx="231" cy="85"></circle><circle r="11" cx="179" cy="530"></circle><circle r="9" cx="771" cy="117"></circle><circle r="10" cx="740" cy="572"></circle><circle r="10" cx="190" cy="312"></circle><circle r="10" cx="98" cy="331"></circle><circle r="15" cx="515" cy="295"></circle><circle r="16" cx="753" cy="229"></circle><circle r="10" cx="588" cy="448"></circle><circle r="13" cx="495" cy="350"></circle><circle r="15" cx="126" cy="432"></circle><circle r="12" cx="313" cy="95"></circle><circle r="8" cx="159" cy="252"></circle><circle r="13" cx="897" cy="275"></circle><circle r="14" cx="273" cy="161"></circle><circle r="16" cx="739" cy="75"></circle><circle r="12" cx="118" cy="294"></circle><circle r="15" cx="871" cy="240"></circle><circle r="10" cx="266" cy="350"></circle><circle r="16" cx="173" cy="119"></circle><circle r="16" cx="68" cy="528"></circle><circle r="10" cx="809" cy="99"></circle><circle r="15" cx="273" cy="472"></circle><circle r="16" cx="557" cy="580"></circle><circle r="12" cx="864" cy="566"></circle><circle r="9" cx="14" cy="502"></circle><circle r="15" cx="121" cy="144"></circle><circle r="16" cx="318" cy="13"></circle><circle r="11" cx="838" cy="60"></circle><circle r="10" cx="127" cy="231"></circle><circle r="16" cx="520" cy="197"></circle><circle r="16" cx="19" cy="439"></circle><circle r="13" cx="585" cy="230"></circle><circle r="9" cx="513" cy="583"></circle><circle r="8" cx="704" cy="60"></circle><circle r="14" cx="144" cy="55"></circle><circle r="10" cx="370" cy="523"></circle><circle r="12" cx="800" cy="43"></circle><circle r="9" cx="208" cy="195"></circle><circle r="16" cx="879" cy="143"></circle><circle r="13" cx="189" cy="19"></circle><circle r="13" cx="443" cy="382"></circle><circle r="12" cx="153" cy="340"></circle><circle r="9" cx="39" cy="587"></circle><circle r="15" cx="730" cy="4"></circle><circle r="10" cx="819" cy="446"></circle><circle r="9" cx="852" cy="501"></circle><circle r="11" cx="890" cy="354"></circle><circle r="13" cx="163" cy="155"></circle><circle r="11" cx="438" cy="494"></circle><circle r="12" cx="133" cy="571"></circle><circle r="14" cx="346" cy="431"></circle><circle r="13" cx="492" cy="496"></circle><circle r="13" cx="413" cy="226"></circle><circle r="16" cx="891" cy="48"></circle><circle r="12" cx="738" cy="418"></circle><circle r="14" cx="316" cy="178"></circle><circle r="14" cx="248" cy="591"></circle><circle r="16" cx="8" cy="565"></circle><circle r="14" cx="288" cy="243"></circle><circle r="9" cx="541" cy="323"></circle><circle r="12" cx="75" cy="250"></circle><circle r="11" cx="686" cy="420"></circle><circle r="12" cx="480" cy="5"></circle><circle r="16" cx="631" cy="207"></circle><circle r="14" cx="667" cy="270"></circle><circle r="15" cx="588" cy="184"></circle><circle r="12" cx="308" cy="389"></circle><circle r="9" cx="639" cy="3"></circle><circle r="15" cx="608" cy="49"></circle><circle r="10" cx="478" cy="271"></circle><circle r="15" cx="404" cy="402"></circle><circle r="14" cx="513" cy="397"></circle><circle r="12" cx="631" cy="454"></circle><circle r="16" cx="724" cy="124"></circle><circle r="11" cx="890" cy="190"></circle><circle r="15" cx="308" cy="506"></circle><circle r="15" cx="763" cy="173"></circle><circle r="16" cx="759" cy="535"></circle><circle r="12" cx="585" cy="78"></circle><circle r="14" cx="632" cy="335"></circle><circle r="13" cx="795" cy="261"></circle><circle r="8" cx="699" cy="460"></circle><circle r="11" cx="72" cy="34"></circle><circle r="14" cx="494" cy="238"></circle><circle r="11" cx="575" cy="518"></circle><circle r="15" cx="41" cy="164"></circle><circle r="8" cx="552" cy="269"></circle><circle r="12" cx="283" cy="70"></circle><circle r="12" cx="801" cy="560"></circle><circle r="12" cx="207" cy="488"></circle><circle r="11" cx="377" cy="100"></circle><circle r="8" cx="413" cy="110"></circle><circle r="14" cx="863" cy="435"></circle><circle r="15" cx="803" cy="386"></circle><circle r="16" cx="17" cy="298"></circle><circle r="12" cx="711" cy="541"></circle><circle r="9" cx="238" cy="303"></circle><circle r="10" cx="226" cy="350"></circle><circle r="9" cx="162" cy="470"></circle><circle r="14" cx="411" cy="266"></circle><circle r="13" cx="377" cy="176"></circle><circle r="12" cx="10" cy="94"></circle><circle r="15" cx="463" cy="188"></circle><circle r="9" cx="575" cy="304"></circle><circle r="8" cx="424" cy="554"></circle><circle r="12" cx="601" cy="132"></circle><circle r="8" cx="888" cy="461"></circle><circle r="11" cx="100" cy="71"></circle><circle r="11" cx="338" cy="280"></circle><circle r="8" cx="730" cy="261"></circle><circle r="11" cx="236" cy="448"></circle><circle r="11" cx="25" cy="44"></circle><circle r="13" cx="90" cy="593"></circle><circle r="11" cx="250" cy="511"></circle><circle r="16" cx="121" cy="180"></circle><circle r="15" cx="713" cy="200"></circle><circle r="12" cx="245" cy="6"></circle><circle r="12" cx="244" cy="385"></circle><circle r="9" cx="500" cy="81"></circle><circle r="8" cx="657" cy="43"></circle><circle r="16" cx="200" cy="403"></circle><circle r="13" cx="413" cy="148"></circle><circle r="10" cx="504" cy="450"></circle><circle r="15" cx="693" cy="234"></circle><circle r="14" cx="655" cy="576"></circle><circle r="10" cx="601" cy="280"></circle><circle r="13" cx="298" cy="586"></circle><circle r="13" cx="358" cy="558"></circle><circle r="16" cx="689" cy="23"></circle><circle r="14" cx="414" cy="341"></circle><circle r="15" cx="366" cy="46"></circle><circle r="8" cx="81" cy="171"></circle><circle r="12" cx="221" cy="144"></circle><circle r="11" cx="104" cy="509"></circle><circle r="10" cx="811" cy="165"></circle><circle r="11" cx="414" cy="594"></circle><circle r="11" cx="202" cy="439"></circle><circle r="10" cx="858" cy="328"></circle><circle r="14" cx="212" cy="264"></circle><circle r="10" cx="316" cy="543"></circle><circle r="16" cx="560" cy="4"></circle><circle r="14" cx="362" cy="394"></circle><circle r="13" cx="9" cy="248"></circle><circle r="16" cx="345" cy="321"></circle><circle r="12" cx="886" cy="538"></circle><circle r="15" cx="74" cy="98"></circle><circle r="13" cx="758" cy="36"></circle><circle r="11" cx="447" cy="420"></circle><circle r="16" cx="466" cy="92"></circle><circle r="14" cx="477" cy="565"></circle><circle r="13" cx="737" cy="461"></circle><circle r="15" cx="776" cy="491"></circle><circle r="15" cx="452" cy="309"></circle><circle r="9" cx="369" cy="240"></circle><circle r="16" cx="405" cy="511"></circle><circle r="12" cx="255" cy="43"></circle><circle r="13" cx="382" cy="449"></circle><circle r="11" cx="263" cy="105"></circle><circle r="10" cx="730" cy="318"></circle><circle r="12" cx="892" cy="598"></circle><circle r="10" cx="862" cy="387"></circle><circle r="11" cx="739" cy="372"></circle><circle r="13" cx="609" cy="367"></circle><circle r="14" cx="254" cy="211"></circle><circle r="11" cx="479" cy="130"></circle><circle r="15" cx="833" cy="291"></circle><circle r="16" cx="805" cy="7"></circle><circle r="8" cx="768" cy="304"></circle><circle r="15" cx="545" cy="51"></circle><circle r="10" cx="171" cy="595"></circle><circle r="15" cx="41" cy="361"></circle><circle r="8" cx="121" cy="107"></circle><circle r="11" cx="665" cy="530"></circle><circle r="16" cx="262" cy="421"></circle><circle r="11" cx="3" cy="6"></circle><circle r="12" cx="695" cy="577"></circle><circle r="10" cx="643" cy="102"></circle><circle r="15" cx="223" cy="559"></circle><circle r="10" cx="538" cy="431"></circle><circle r="15" cx="553" cy="380"></circle><circle r="9" cx="562" cy="153"></circle><circle r="13" cx="140" cy="373"></circle><circle r="16" cx="668" cy="317"></circle></g></svg>