<svg id="visual" viewBox="0 0 900 600" width="900" height="600" xmlns="http://www.w3.org/2000/svg" xmlns:xlink="http://www.w3.org/1999/xlink" version="1.1"><rect x="0" y="0" width="900" height="600" fill="#fff"></rect><g transform="translate(472.47295872775015 310.01124120773795)"><path d="M199.2 -246.8C237.6 -205.1 234.2 -122.9 235.9 -50.8C237.6 21.2 244.4 83.1 223.2 137.5C202.1 191.9 153 238.8 96.1 256.1C39.1 273.5 -25.8 261.2 -95.5 243.9C-165.2 226.5 -239.8 204 -268.3 154.8C-296.9 105.6 -279.4 29.7 -257.7 -37.1C-235.9 -103.8 -209.9 -161.5 -166.2 -202.3C-122.6 -243.1 -61.3 -267 9.5 -278.4C80.3 -289.8 160.7 -288.5 199.2 -246.8" fill="#000"></path></g></svg>